<?xml version="1.0" standalone="no"?>
<!DOCTYPE svg PUBLIC "-//W3C//DTD SVG 20010904//EN"
 "http://www.w3.org/TR/2001/REC-SVG-20010904/DTD/svg10.dtd">
<svg version="1.0" xmlns="http://www.w3.org/2000/svg"
 width="954.000000pt" height="980.000000pt" viewBox="0 0 954.000000 980.000000"
 preserveAspectRatio="xMidYMid meet">

<g transform="translate(0.000000,980.000000) scale(0.100000,-0.100000)"
fill="#000000" stroke="none">
<path d="M4690 9794 c-201 -39 -346 -163 -429 -368 -15 -38 -16 -247 -21
-2464 l-5 -2424 -654 644 c-360 353 -679 662 -710 685 -86 66 -168 95 -282
101 -163 8 -286 -42 -410 -167 -188 -191 -219 -446 -79 -658 51 -79 2329
-2354 2402 -2400 109 -69 253 -95 378 -69 171 36 80 -46 1373 1245 712 711
1183 1189 1207 1225 113 166 111 396 -4 569 -76 114 -206 209 -331 242 -136
35 -308 9 -427 -66 -32 -20 -312 -290 -715 -693 l-663 -661 0 2401 c0 2093 -2
2407 -15 2457 -61 233 -260 393 -500 402 -49 2 -101 1 -115 -1z"/>
<path d="M415 4031 c-178 -51 -317 -177 -383 -347 l-27 -69 -3 -1558 c-3
-1730 -7 -1623 64 -1758 47 -90 154 -192 248 -237 138 -67 -224 -62 4498 -60
l4293 3 55 21 c102 39 144 66 216 138 81 81 126 164 149 271 22 103 22 3085 0
3188 -33 155 -148 305 -286 370 -302 143 -637 11 -757 -299 l-27 -69 -3 -1257
-2 -1258 -3670 0 -3670 0 0 1228 c0 1193 -1 1231 -20 1306 -26 101 -69 176
-144 251 -68 67 -153 117 -241 140 -78 20 -214 18 -290 -4z"/>
</g>
</svg>
